<?xml version="1.0" encoding="utf-8"?>
<!-- Generator: Adobe Illustrator 21.1.0, SVG Export Plug-In . SVG Version: 6.00 Build 0)  -->
<svg version="1.1" xmlns="http://www.w3.org/2000/svg" xmlns:xlink="http://www.w3.org/1999/xlink" x="0px" y="0px"
	 viewBox="0 0 1920 3240" style="enable-background:new 0 0 1920 3240;" xml:space="preserve">
<style type="text/css">
	.st0{fill:#000C2A;}
	.st1{fill:#09142D;}
	.st2{fill:none;stroke:#09142D;stroke-miterlimit:10;}
	.st3{display:none;}
	.st4{display:inline;}
	.st5{display:inline;fill:#FF2D28;}
	.st6{display:inline;fill:#00FFFF;}
	.st7{display:inline;fill:#FF2145;}
	.st8{display:inline;fill:#15FF41;}
	.st9{display:inline;fill:#00FF00;}
</style>
<g id="UI">
	<rect x="-9088" y="1164" class="st0" width="300" height="1080"/>
	<g>
		<path class="st1" d="M865.6,203.6l31.6-31.6l0.4,0.9l0.4,0.9l0.4,0.9c4.5,12.2-0.2,26-11.4,32.8l-0.9,0.5l-0.9,0.5
			c-11.3,5.8-25.1,3-33.3-6.7l-0.6-0.8l-0.6-0.8l-0.6-0.8l-0.5-0.8c-6.9-11.2-4.9-25.5,4.8-34.4l0.8-0.7l0.8-0.6
			c10-7.9,24-7.8,33.9,0.1l0.8,0.6l0.7,0.7l0.7,0.7l-4.6,4.6l0,0l-0.6-0.6l-0.7-0.6c-9.2-7.7-23-6.1-30.1,3.5l-0.5,0.7l-0.5,0.7
			c-6.4,10.6-2.4,24.3,8.8,29.6l0.8,0.4L865.6,203.6L865.6,203.6z" />
	</g>
	<g>
		<path class="st1" d="M405.4,3007.4l31.6-31.6l0.4,0.9l0.4,0.9l0.4,0.9c4.5,12.2-0.2,26-11.4,32.8l-0.9,0.5l-0.9,0.5
			c-11.3,5.8-25.1,3-33.3-6.7l-0.6-0.8l-0.6-0.8l-0.6-0.8l-0.5-0.8c-6.9-11.2-4.9-25.5,4.8-34.4l0.8-0.7l0.8-0.6
			c10-7.9,24-7.8,33.9,0.1l0.8,0.6l0.7,0.7l0.7,0.7l-4.6,4.6l0,0l-0.6-0.6l-0.7-0.6c-9.2-7.7-23-6.1-30.1,3.5l-0.5,0.7l-0.5,0.7
			c-6.4,10.6-2.4,24.3,8.8,29.6l0.8,0.4L405.4,3007.4L405.4,3007.4z"/>
	</g>
</g>
<g id="NewLayers">
	<line class="st2" x1="813.9" y1="184" x2="180" y2="184"/>
	<circle class="st1" cx="1355.8" cy="1184.8" r="13.6"/>
	<path class="st2" d="M1355.8,1183.5v817v518.8v190.6c0,37.6-30.5,68.1-68.1,68.1H412.9H271.9c-37.6,0-68.1-30.5-68.1-68.1V1656
		l1.4-343.8v-59.9c0-37.6,30.5-68.1,68.1-68.1h1406c37.6,0,68.1-30.5,68.1-68l0.6-864c0-37.6-30.5-68.1-68.1-68.1H936.4"/>
	<circle class="st1" cx="412.2" cy="2778" r="13.6"/>
	<line class="st2" x1="411.5" y1="2777.3" x2="411.5" y2="2948.9"/>
</g>
<g id="Spacers" class="st3">
	<rect x="-6340.7" y="-5707.8" class="st4" width="137.9" height="36.1"/>
	<rect x="-6340.7" y="-5932.8" class="st4" width="137.9" height="36.1"/>
	<rect x="-5138.7" y="-5586.8" class="st4" width="137.9" height="36.1"/>
	
	<rect x="-5221.4" y="-5548" transform="matrix(-2.851781e-06 1 -1 -2.851781e-06 -10723.4443 -336.4265)" class="st4" width="55.8" height="36.1"/>
	<rect x="-6185.7" y="-5851.8" class="st4" width="1191.7" height="36.1"/>
	<rect x="-6346.9" y="-5656" class="st4" width="137.9" height="54"/>
	<rect x="-6344.9" y="-5779" class="st4" width="1350.9" height="54"/>
	<rect x="-6351.9" y="-5513" class="st4" width="1350.9" height="54"/>
	<rect x="-6379.7" y="-5437.8" class="st4" width="137.9" height="36.1"/>
	<rect x="-8680.7" y="-4483.8" class="st4" width="137.9" height="36.1"/>
	<rect x="-8680.7" y="-4708.8" class="st4" width="137.9" height="36.1"/>
	<rect x="-7478.7" y="-4362.8" class="st4" width="137.9" height="36.1"/>
	
	<rect x="-7561.4" y="-4324" transform="matrix(-2.851781e-06 1 -1 -2.851781e-06 -11839.4512 3227.5769)" class="st4" width="55.8" height="36.1"/>
	<rect x="-8525.7" y="-4627.8" class="st4" width="1191.7" height="36.1"/>
	<rect x="-8686.9" y="-4432" class="st4" width="137.9" height="54"/>
	<rect x="-8684.9" y="-4555" class="st4" width="1350.9" height="54"/>
	<rect x="-8691.9" y="-4289" class="st4" width="1350.9" height="54"/>
	<rect x="-8719.7" y="-4213.8" class="st4" width="137.9" height="36.1"/>
	<rect x="-5281.7" y="-4483.8" class="st4" width="137.9" height="36.1"/>
	<rect x="-5281.7" y="-4708.8" class="st4" width="137.9" height="36.1"/>
	<rect x="-4079.7" y="-4362.8" class="st4" width="137.9" height="36.1"/>
	
	<rect x="-4162.4" y="-4324" transform="matrix(-2.851781e-06 1 -1 -2.851781e-06 -8440.4414 -171.423)" class="st4" width="55.8" height="36.1"/>
	<rect x="-5126.7" y="-4627.8" class="st4" width="1191.7" height="36.1"/>
	<rect x="-5287.9" y="-4432" class="st4" width="137.9" height="54"/>
	<rect x="-5285.9" y="-4555" class="st4" width="1350.9" height="54"/>
	<rect x="-5292.9" y="-4289" class="st4" width="1350.9" height="54"/>
	<rect x="-5320.7" y="-4213.8" class="st4" width="137.9" height="36.1"/>
	<rect x="-8717.5" y="-3483" class="st5" width="587.9" height="54"/>
	<rect x="-8737" y="-3213" class="st5" width="197" height="20"/>
	<rect x="-8570.7" y="-3193" class="st5" width="197" height="20"/>
	<rect x="-8737" y="-2960" class="st5" width="197" height="20"/>
	<rect x="-8570.7" y="-2940" class="st5" width="197" height="20"/>
	<rect x="-5319.5" y="-3383" class="st5" width="587.9" height="54"/>
	<rect x="-5339" y="-3024" class="st5" width="197" height="20"/>
	<rect x="-5172.7" y="-3004" class="st5" width="197" height="20"/>
	<rect x="-5172.7" y="-2831" class="st5" width="197" height="20"/>
	<rect x="-9120" y="-2764" class="st6" width="116" height="39"/>
	<rect x="-9120" y="-2703" class="st6" width="116" height="39"/>
	<rect x="-9049" y="-894" class="st7" width="70" height="30"/>
	<rect x="-9170" y="630" class="st7" width="70" height="30"/>
	<rect x="-7366.5" y="-1260.5" class="st8" width="36" height="19"/>
	<rect x="-8122" y="-1180" class="st8" width="36" height="19"/>
	<rect x="-9049" y="1614" class="st7" width="70" height="30"/>
	<rect x="713.5" y="1320.5" class="st9" width="83" height="26"/>
	<rect x="1224" y="1893" class="st9" width="83" height="26"/>
</g>
<g id="Layer_1">
</g>
<g id="Layer_5">
</g>
</svg>
