<svg xmlns="http://www.w3.org/2000/svg" viewBox="0 0 10846.5 2548.81"><defs><style>.cls-1{fill:#000c2a;}.cls-2{fill:#09142d;}.cls-3,.cls-43,.cls-61,.cls-80{fill:none;stroke:#09142d;}.cls-3{stroke-miterlimit:10;}.cls-4{font-size:35px;font-family:AvenirNextLTPro-Light, AvenirNextLTPro Light;}.cls-24,.cls-4{letter-spacing:0.07em;}.cls-5{letter-spacing:0.07em;}.cls-6{letter-spacing:0.07em;}.cls-7{letter-spacing:0.07em;}.cls-8{letter-spacing:0.07em;}.cls-9{letter-spacing:0.07em;}.cls-10{letter-spacing:0.06em;}.cls-11{letter-spacing:0.07em;}.cls-12{letter-spacing:0.1em;}.cls-13{letter-spacing:0.06em;}.cls-14{letter-spacing:0.07em;}.cls-15{letter-spacing:0.07em;}.cls-16{letter-spacing:0.07em;}.cls-17{letter-spacing:0.04em;}.cls-18{letter-spacing:0.08em;}.cls-19{letter-spacing:0.07em;}.cls-20{letter-spacing:0.08em;}.cls-21{letter-spacing:0.07em;}.cls-22{letter-spacing:0.07em;}.cls-23{letter-spacing:0.03em;}.cls-25{letter-spacing:0.07em;}.cls-26{letter-spacing:0.1em;}.cls-27,.cls-71{font-size:21px;font-family:AvenirNext-Regular, Avenir Next;}.cls-27,.cls-40{letter-spacing:0.07em;}.cls-28,.cls-71{letter-spacing:0.06em;}.cls-29{letter-spacing:0.06em;}.cls-30{letter-spacing:0.1em;}.cls-31{letter-spacing:0.08em;}.cls-32{letter-spacing:0.06em;}.cls-33{letter-spacing:0.04em;}.cls-34{letter-spacing:0.04em;}.cls-35{letter-spacing:0.06em;}.cls-36{letter-spacing:0.06em;}.cls-37{letter-spacing:0.05em;}.cls-38{letter-spacing:0.07em;}.cls-39{letter-spacing:0.05em;}.cls-41{letter-spacing:0.04em;}.cls-42{letter-spacing:0.05em;}.cls-43,.cls-61,.cls-80{font-size:65px;font-family:AvenirNext-Bold, Avenir Next;font-weight:700;}.cls-43,.cls-67{letter-spacing:0.07em;}.cls-44{letter-spacing:0.07em;}.cls-45{letter-spacing:0.06em;}.cls-46{letter-spacing:0.06em;}.cls-47{letter-spacing:0.07em;}.cls-48{letter-spacing:0.07em;}.cls-49{letter-spacing:0.07em;}.cls-50{letter-spacing:0.06em;}.cls-51{letter-spacing:0.06em;}.cls-52{letter-spacing:0.09em;}.cls-53{letter-spacing:0.07em;}.cls-54{letter-spacing:0.07em;}.cls-55{letter-spacing:0.06em;}.cls-56{letter-spacing:0.04em;}.cls-57{letter-spacing:0.07em;}.cls-58{letter-spacing:0.06em;}.cls-59{letter-spacing:0.05em;}.cls-60{letter-spacing:0.07em;}.cls-61{letter-spacing:0.05em;}.cls-62{letter-spacing:0.06em;}.cls-63{letter-spacing:0.07em;}.cls-64{letter-spacing:0.05em;}.cls-65{letter-spacing:0.06em;}.cls-66{letter-spacing:0.06em;}.cls-68{letter-spacing:0em;}.cls-69,.cls-80{letter-spacing:0.06em;}.cls-70{letter-spacing:0.07em;}.cls-72{letter-spacing:-0.02em;}.cls-73{letter-spacing:0.05em;}.cls-74{letter-spacing:0.04em;}.cls-75{letter-spacing:0.03em;}.cls-76{letter-spacing:0.1em;}.cls-77{letter-spacing:0.07em;}.cls-78{letter-spacing:0.05em;}.cls-79{letter-spacing:0.06em;}.cls-81{letter-spacing:0.06em;}.cls-82{letter-spacing:0.09em;}</style></defs><title>about-take-two</title><g id="UI"><rect class="cls-1" y="754.81" width="300" height="1080"/><path class="cls-2" d="M1110,443.45l23.22-23.23.32.66.29.67.27.67a20,20,0,0,1-8.38,24.07l-.63.37-.64.34a20,20,0,0,1-24.42-5l-.46-.56-.44-.58-.41-.6-.39-.62a20,20,0,0,1,3.51-25.24l.55-.48.55-.47a20,20,0,0,1,24.92.1l.56.47.54.48.52.51-3.37,3.36,0,0-.43-.41-.48-.43a15.24,15.24,0,0,0-22.1,2.6l-.37.52-.35.53A15.24,15.24,0,0,0,1108.8,443l.58.27.6.23Z" transform="translate(9088 -409.19)"/><path class="cls-2" d="M772,2502.45l23.22-23.23.32.66.29.67.27.67a20,20,0,0,1-8.38,24.07l-.63.37-.64.34a20,20,0,0,1-24.42-5l-.46-.56-.44-.58-.41-.6-.39-.62a20,20,0,0,1,3.51-25.24l.55-.48.55-.47a20,20,0,0,1,24.92.1l.56.47.54.48.52.51-3.37,3.36,0,0-.43-.41-.48-.43a15.24,15.24,0,0,0-22.1,2.6l-.37.52-.35.53A15.24,15.24,0,0,0,770.8,2502l.58.27.6.23Z" transform="translate(9088 -409.19)"/></g><g id="NewLayers"><line class="cls-3" x1="10160" y1="19.81" x2="10082" y2="19.81"/><path class="cls-3" d="M1162,429h546a50,50,0,0,1,50,50l-.46,634.54a50,50,0,0,1-50,50H675a50,50,0,0,0-50,50v44" transform="translate(9088 -409.19)"/><circle class="cls-2" cx="10558" cy="754.81" r="10"/><path class="cls-3" d="M624,1510v774a50,50,0,0,0,50,50h746a50,50,0,0,0,50-50V2144" transform="translate(9088 -409.19)"/><line class="cls-3" x1="10558" y1="753.81" x2="10558" y2="1353.81"/><circle class="cls-2" cx="9865" cy="1924.81" r="10"/><line class="cls-3" x1="9864.5" y1="1924.31" x2="9864.5" y2="2050.31"/></g><g id="Layer_5" data-name="Layer 5"><text class="cls-4" transform="translate(10171 138.66)">A<tspan class="cls-5" x="23.84" y="0">st</tspan><tspan class="cls-6" x="54.53" y="0">r</tspan><tspan class="cls-5" x="68.25" y="0">ology is assu</tspan><tspan class="cls-7" x="285.88" y="0">r</tspan><tspan class="cls-5" x="299.77" y="0">an</tspan><tspan x="341.32" y="0">c</tspan><tspan class="cls-8" x="359.41" y="0">e th</tspan><tspan class="cls-9" x="425.88" y="0">a</tspan><tspan class="cls-5" x="445.23" y="0">t the </tspan><tspan class="cls-5"><tspan x="0" y="42">uni</tspan><tspan class="cls-6" x="54.77" y="42">v</tspan><tspan x="73.88" y="42">erse gets u</tspan><tspan class="cls-10" x="259.8" y="42">s</tspan><tspan x="275.9" y="42">, is</tspan><tspan class="cls-11" x="323.12" y="42">n</tspan><tspan class="cls-12" x="344.92" y="42">&apos;</tspan><tspan x="354.96" y="42">t th</tspan><tspan class="cls-9" x="415.48" y="42">a</tspan><tspan x="434.83" y="42">t w</tspan><tspan class="cls-13" x="487.47" y="42">h</tspan><tspan x="509.07" y="42">y </tspan><tspan class="cls-14" x="538.22" y="42">w</tspan><tspan x="566.26" y="42">e </tspan></tspan><tspan class="cls-6"><tspan x="0" y="84">r</tspan><tspan class="cls-5" x="13.72" y="84">ead our ho</tspan><tspan class="cls-15" x="197.54" y="84">r</tspan><tspan class="cls-5" x="211.26" y="84">os</tspan><tspan class="cls-16" x="249.58" y="84">c</tspan><tspan class="cls-5" x="267.68" y="84">opes?</tspan></tspan><tspan class="cls-17"><tspan x="0" y="168">W</tspan><tspan class="cls-5" x="31.08" y="168">e a</tspan><tspan class="cls-15" x="80.78" y="168">r</tspan><tspan class="cls-5" x="94.5" y="168">e </tspan><tspan class="cls-18" x="124.7" y="168">D</tspan><tspan class="cls-5" x="150.78" y="168">o</tspan><tspan class="cls-19" x="172.62" y="168">o</tspan><tspan class="cls-5" x="194.21" y="168">z, a b</tspan><tspan class="cls-7" x="283.81" y="168">r</tspan><tspan class="cls-20" x="297.71" y="168">and th</tspan><tspan class="cls-9" x="407.92" y="168">a</tspan><tspan class="cls-5" x="427.27" y="168">t emb</tspan><tspan class="cls-21" x="526.04" y="168">r</tspan><tspan class="cls-5" x="539.94" y="168">a</tspan><tspan class="cls-22" x="559.43" y="168">c</tspan><tspan class="cls-5" x="577.53" y="168">es </tspan></tspan><tspan class="cls-5"><tspan x="0" y="210">the dynamism of the </tspan><tspan class="cls-19" x="361.65" y="210">z</tspan><tspan x="379.01" y="210">odia</tspan><tspan class="cls-6" x="453.52" y="210">c</tspan><tspan x="471.48" y="210">.</tspan><tspan class="cls-23" x="481.35" y="210"> </tspan><tspan class="cls-19" x="489.96" y="210">T</tspan><tspan x="509.73" y="210">he 12 </tspan><tspan x="0" y="252">si</tspan><tspan class="cls-24" x="27.3" y="252">g</tspan><tspan x="49.28" y="252">ns a</tspan><tspan class="cls-6" x="117.35" y="252">r</tspan><tspan x="131.07" y="252">e embodied within all of us </tspan><tspan x="0" y="294">and </tspan><tspan class="cls-6" x="73.95" y="294">w</tspan><tspan x="101.99" y="294">e belie</tspan><tspan class="cls-15" x="216.75" y="294">v</tspan><tspan x="235.86" y="294">e in </tspan><tspan class="cls-19" x="308.98" y="294">o</tspan><tspan x="330.57" y="294">wning th</tspan><tspan class="cls-9" x="482.36" y="294">a</tspan><tspan class="cls-25" x="501.72" y="294">t</tspan><tspan x="515.82" y="294">. </tspan><tspan class="cls-18" x="535.74" y="294">D</tspan><tspan x="561.81" y="294">o</tspan><tspan class="cls-19" x="583.65" y="294">o</tspan><tspan x="605.25" y="294">z </tspan></tspan><tspan x="0" y="336">c</tspan><tspan class="cls-5" x="18.1" y="336">eleb</tspan><tspan class="cls-7" x="91.84" y="336">r</tspan><tspan class="cls-9" x="105.73" y="336">a</tspan><tspan class="cls-16" x="125.09" y="336">t</tspan><tspan class="cls-5" x="139.09" y="336">es the f</tspan><tspan class="cls-15" x="265.09" y="336">r</tspan><tspan class="cls-5" x="278.81" y="336">eedom of affi</tspan><tspan class="cls-18" x="500.56" y="336">r</tspan><tspan class="cls-5" x="514.77" y="336">ming </tspan><tspan class="cls-5"><tspan x="0" y="378">who </tspan><tspan class="cls-6" x="82.32" y="378">w</tspan><tspan x="110.35" y="378">e a</tspan><tspan class="cls-15" x="160.05" y="378">r</tspan><tspan x="173.77" y="378">e e</tspan><tspan class="cls-6" x="224.14" y="378">v</tspan><tspan x="243.25" y="378">e</tspan><tspan class="cls-26" x="263.41" y="378">r</tspan><tspan x="278.35" y="378">y time </tspan><tspan class="cls-15" x="394.55" y="378">w</tspan><tspan x="422.58" y="378">e get </tspan><tspan x="0" y="420">d</tspan><tspan class="cls-6" x="22.36" y="420">r</tspan><tspan x="36.08" y="420">esse</tspan><tspan class="cls-15" x="109.37" y="420">d</tspan><tspan x="131.39" y="420">.</tspan></tspan></text><text class="cls-27" transform="translate(9475 950.69)">Suppo<tspan class="cls-28" x="71.42" y="0">r</tspan><tspan class="cls-20" x="80.3" y="0">ting local (US) industry is a co</tspan><tspan class="cls-29" x="410" y="0">r</tspan><tspan class="cls-20" x="418.76" y="0">e belie</tspan><tspan class="cls-30" x="494.99" y="0">f</tspan><tspan class="cls-31" x="503.26" y="0" xml:space="preserve"> o</tspan><tspan class="cls-30" x="524.49" y="0">f</tspan><tspan x="532.76" y="0" xml:space="preserve"> our b</tspan><tspan class="cls-32" x="598.68" y="0">r</tspan><tspan x="607.56" y="0">and</tspan><tspan class="cls-33" x="649.08" y="0">.</tspan><tspan class="cls-32" x="655.49" y="0"> </tspan><tspan class="cls-34" x="662.06" y="0">W</tspan><tspan class="cls-31" x="683.29" y="0">e </tspan><tspan x="0" y="32">pa</tspan><tspan class="cls-28" x="27.7" y="32">r</tspan><tspan class="cls-20" x="36.58" y="32">tner with </tspan><tspan class="cls-24" x="141.08" y="32">e</tspan><tspan x="154.54" y="32">xpe</tspan><tspan class="cls-28" x="194.77" y="32">r</tspan><tspan class="cls-20" x="203.66" y="32">t c</tspan><tspan class="cls-32" x="230.79" y="32">r</tspan><tspan x="239.67" y="32">a</tspan><tspan class="cls-28" x="252.46" y="32">f</tspan><tspan x="259.98" y="32">tsmen and manufactu</tspan><tspan class="cls-35" x="496.85" y="32">r</tspan><tspan x="505.61" y="32">ers in </tspan><tspan class="cls-36" x="573.48" y="32">L</tspan><tspan class="cls-31" x="585.39" y="32">os</tspan><tspan class="cls-35" x="610.69" y="32"> </tspan><tspan x="617.14" y="32">Angeles</tspan><tspan class="cls-37" x="706.98" y="32">,</tspan><tspan class="cls-31" x="713.38" y="32"> </tspan><tspan class="cls-29"><tspan x="0" y="64">C</tspan><tspan class="cls-20" x="16.32" y="64">alifornia to </tspan><tspan class="cls-38" x="143.79" y="64">ex</tspan><tspan class="cls-20" x="168.86" y="64">ecute our visions</tspan><tspan class="cls-37" x="356.53" y="64">.</tspan><tspan class="cls-39" x="362.94" y="64"> </tspan><tspan x="369.26" y="64">T</tspan><tspan class="cls-20" x="382.43" y="64">h</tspan><tspan x="396.25" y="64">r</tspan><tspan class="cls-40" x="405" y="64">ough thoughtful design </tspan></tspan><tspan x="0" y="96">decisions</tspan><tspan class="cls-41" x="104.24" y="96">,</tspan><tspan x="110.65" y="96" xml:space="preserve"> perfect fit</tspan><tspan class="cls-42" x="224.82" y="96">,</tspan><tspan x="231.23" y="96" xml:space="preserve"> and high-end finishes</tspan><tspan class="cls-37" x="475.94" y="96">,</tspan><tspan x="482.34" y="96" xml:space="preserve"> we aim to ma</tspan><tspan class="cls-35" x="635.75" y="96">k</tspan><tspan class="cls-31" x="647.65" y="96">e our </tspan><tspan x="0" y="128">p</tspan><tspan class="cls-36" x="14.91" y="128">r</tspan><tspan x="23.67" y="128">oducts the best without comp</tspan><tspan class="cls-29" x="352.65" y="128">r</tspan><tspan x="361.41" y="128">omising our values</tspan><tspan class="cls-37" x="569.81" y="128">.</tspan></text><text class="cls-43" transform="translate(9469 908.81)">M<tspan class="cls-44" x="66.65" y="0">A</tspan><tspan class="cls-45" x="118.58" y="0">D</tspan><tspan class="cls-5" x="172.88" y="0">E </tspan><tspan class="cls-46" x="238.33" y="0">I</tspan><tspan class="cls-5" x="263.22" y="0">N </tspan><tspan class="cls-47" x="340.57" y="0">A</tspan><tspan class="cls-48" x="392.5" y="0">M</tspan><tspan class="cls-49" x="458.85" y="0">E</tspan><tspan class="cls-50" x="502.95" y="0">R</tspan><tspan class="cls-51" x="550.05" y="0">I</tspan><tspan class="cls-52" x="574.81" y="0">C</tspan><tspan class="cls-53" x="626.05" y="0">A</tspan></text><text class="cls-27" transform="translate(10308 1520.69)">Selecting m<tspan class="cls-14" x="130.16" y="0">a</tspan><tspan x="142.74" y="0">terials is the first step in our </tspan><tspan x="0" y="32">c</tspan><tspan class="cls-36" x="12.07" y="32">r</tspan><tspan class="cls-24" x="20.83" y="32">e</tspan><tspan class="cls-54" x="34.29" y="32">a</tspan><tspan x="46.87" y="32">tive p</tspan><tspan class="cls-29" x="109.07" y="32">r</tspan><tspan class="cls-20" x="117.83" y="32">ocess</tspan><tspan class="cls-42" x="179.69" y="32">.</tspan><tspan class="cls-55" x="186.1" y="32"> </tspan><tspan class="cls-56" x="192.67" y="32">W</tspan><tspan x="213.9" y="32">e believe m</tspan><tspan class="cls-54" x="342.49" y="32">a</tspan><tspan x="355.06" y="32">terials a</tspan><tspan class="cls-35" x="443.01" y="32">r</tspan><tspan x="451.77" y="32">e as </tspan><tspan x="0" y="64">impo</tspan><tspan class="cls-28" x="56.26" y="64">r</tspan><tspan x="65.14" y="64">tant as silhoue</tspan><tspan class="cls-55" x="225.68" y="64">t</tspan><tspan class="cls-20" x="233.66" y="64">tes; they inform design </tspan><tspan x="0" y="96">decisions and b</tspan><tspan class="cls-29" x="174.36" y="96">r</tspan><tspan class="cls-57" x="183.12" y="96">e</tspan><tspan class="cls-58" x="196.58" y="96">a</tspan><tspan class="cls-20" x="209.16" y="96">the life into </tspan><tspan class="cls-24" x="343.56" y="96">e</tspan><tspan x="357.02" y="96">ach style</tspan><tspan class="cls-59" x="453.93" y="96">.</tspan><tspan class="cls-55" x="460.34" y="96"> </tspan><tspan class="cls-34" x="466.91" y="96">W</tspan><tspan x="488.14" y="96">e </tspan><tspan x="0" y="128">work with specialized mills and tanneries</tspan><tspan class="cls-37" x="453.18" y="128">,</tspan><tspan class="cls-31" x="459.58" y="128"> </tspan><tspan x="0" y="160">sou</tspan><tspan class="cls-36" x="39.08" y="160">r</tspan><tspan x="47.84" y="160">cing </tspan><tspan class="cls-29" x="102.18" y="160">r</tspan><tspan x="110.94" y="160">efined </tspan><tspan class="cls-32" x="186.67" y="160">r</tspan><tspan x="195.55" y="160">aw m</tspan><tspan class="cls-14" x="252.52" y="160">a</tspan><tspan x="265.1" y="160">terials to ensu</tspan><tspan class="cls-36" x="421.76" y="160">r</tspan><tspan x="430.52" y="160">e th</tspan><tspan class="cls-60" x="472.98" y="160">a</tspan><tspan x="485.56" y="160">t </tspan><tspan class="cls-38"><tspan x="0" y="192">e</tspan><tspan class="cls-20" x="13.46" y="192">ach Dooz piece only gets be</tspan><tspan class="cls-32" x="327.37" y="192">t</tspan><tspan class="cls-40" x="335.35" y="192">ter with time</tspan><tspan class="cls-37" x="474.83" y="192">.</tspan></tspan></text><text class="cls-61" transform="translate(10305 1413.81)">S<tspan class="cls-62" x="41.89" y="0">O</tspan><tspan class="cls-63" x="101.18" y="0">U</tspan><tspan class="cls-64" x="153.54" y="0">R</tspan><tspan class="cls-65" x="199.89" y="0">C</tspan><tspan class="cls-46" x="249.21" y="0">I</tspan><tspan class="cls-66" x="274.1" y="0">N</tspan><tspan class="cls-5" x="329.57" y="0">G &amp;</tspan><tspan class="cls-67"><tspan x="0" y="65">M</tspan><tspan class="cls-68" x="66.65" y="65">A</tspan><tspan class="cls-69" x="113.91" y="65">T</tspan><tspan class="cls-49" x="155.58" y="65">E</tspan><tspan class="cls-50" x="199.68" y="65">R</tspan><tspan class="cls-70" x="246.78" y="65">I</tspan><tspan class="cls-47" x="271.99" y="65">A</tspan><tspan class="cls-5" x="323.92" y="65">L</tspan></tspan></text><text class="cls-71" transform="translate(9469 2152.69)">R<tspan class="cls-20" x="13.9" y="0">achel Bo</tspan><tspan class="cls-29" x="109.2" y="0">r</tspan><tspan class="cls-40" x="117.96" y="0">gha</tspan><tspan class="cls-36" x="159.41" y="0">r</tspan><tspan class="cls-40" x="168.17" y="0">d and Mia </tspan><tspan x="284.9" y="0">K</tspan><tspan class="cls-40" x="299.42" y="0">azovs</tspan><tspan x="360.19" y="0">k</tspan><tspan class="cls-34" x="372.22" y="0">y</tspan><tspan class="cls-41" x="383.29" y="0">,</tspan><tspan class="cls-40" x="389.69" y="0" xml:space="preserve"> a </tspan><tspan class="cls-72"><tspan x="0" y="32">T</tspan><tspan class="cls-20" x="11.53" y="32">aurus and </tspan><tspan class="cls-73" x="127.07" y="32">P</tspan><tspan class="cls-40" x="140.32" y="32">isces </tspan><tspan class="cls-36" x="201.43" y="32">r</tspan><tspan class="cls-40" x="210.19" y="32">espectivel</tspan><tspan class="cls-74" x="322.58" y="32">y</tspan><tspan class="cls-37" x="333.64" y="32">,</tspan><tspan class="cls-20" x="340.05" y="32" xml:space="preserve"> met while </tspan></tspan><tspan class="cls-40"><tspan x="0" y="64">studying </tspan><tspan class="cls-75" x="101.95" y="64">F</tspan><tspan x="114.32" y="64">ashion Design </tspan><tspan class="cls-54" x="277.89" y="64">a</tspan><tspan x="290.47" y="64">t </tspan><tspan class="cls-75" x="305.53" y="64">P</tspan><tspan class="cls-32" x="318.27" y="64">r</tspan><tspan class="cls-54" x="327.16" y="64">a</tspan><tspan class="cls-28" x="339.73" y="64">t</tspan><tspan class="cls-20" x="347.71" y="64">t Institute </tspan><tspan x="0" y="96">whe</tspan><tspan class="cls-36" x="44.65" y="96">r</tspan><tspan x="53.4" y="96">e they bonded over inte</tspan><tspan class="cls-29" x="319.74" y="96">r</tspan><tspan class="cls-20" x="328.5" y="96">ests and </tspan></tspan><tspan class="cls-38"><tspan x="0" y="128">e</tspan><tspan class="cls-20" x="13.46" y="128">xperiences outside o</tspan><tspan class="cls-76" x="244.31" y="128">f</tspan><tspan class="cls-40" x="252.58" y="128" xml:space="preserve"> fashion</tspan><tspan class="cls-37" x="339.69" y="128">.</tspan><tspan class="cls-40" x="346.1" y="128" xml:space="preserve"> Influenced </tspan></tspan><tspan class="cls-40"><tspan x="0" y="160">by global a</tspan><tspan class="cls-36" x="123.94" y="160">r</tspan><tspan x="132.7" y="160">chitectu</tspan><tspan class="cls-29" x="221.32" y="160">r</tspan><tspan class="cls-20" x="230.07" y="160">e and modern a</tspan><tspan class="cls-28" x="404.41" y="160">r</tspan><tspan class="cls-77" x="413.3" y="160">t</tspan><tspan class="cls-59" x="421.53" y="160">,</tspan><tspan x="427.93" y="160"> </tspan><tspan x="0" y="192">they sha</tspan><tspan class="cls-36" x="91.79" y="192">r</tspan><tspan x="100.55" y="192">ed similar design aesthetics: </tspan><tspan x="0" y="224">bold colors</tspan><tspan class="cls-37" x="125.79" y="224">,</tspan><tspan x="132.19" y="224" xml:space="preserve"> cl</tspan><tspan class="cls-24" x="157.96" y="224">e</tspan><tspan class="cls-20" x="171.42" y="224">an lines</tspan><tspan class="cls-41" x="256.76" y="224">,</tspan><tspan x="263.17" y="224" xml:space="preserve"> and e</tspan><tspan class="cls-29" x="331.92" y="224">f</tspan><tspan x="339.32" y="224">fo</tspan><tspan class="cls-28" x="361.49" y="224">r</tspan><tspan x="370.37" y="224">tless </tspan><tspan x="0" y="256">silhoue</tspan><tspan class="cls-28" x="80.18" y="256">t</tspan><tspan class="cls-20" x="88.16" y="256">tes</tspan><tspan class="cls-37" x="120.87" y="256">.</tspan><tspan class="cls-78" x="127.28" y="256"> </tspan><tspan class="cls-79" x="133.6" y="256">T</tspan><tspan x="146.77" y="256">hey o</tspan><tspan class="cls-55" x="207.23" y="256">f</tspan><tspan x="214.74" y="256">ten half-jo</tspan><tspan class="cls-36" x="327.95" y="256">k</tspan><tspan class="cls-20" x="339.86" y="256">ed about </tspan><tspan x="0" y="288">sta</tspan><tspan class="cls-32" x="31.92" y="288">r</tspan><tspan x="40.8" y="288">ting a line together some da</tspan><tspan class="cls-34" x="355.04" y="288">y</tspan><tspan class="cls-41" x="366.11" y="288">,</tspan><tspan class="cls-31" x="372.51" y="288" xml:space="preserve"> and </tspan><tspan x="0" y="320">n</tspan><tspan class="cls-24" x="13.78" y="320">e</tspan><tspan x="27.24" y="320">arly 5 y</tspan><tspan class="cls-24" x="107.08" y="320">e</tspan><tspan class="cls-20" x="120.54" y="320">ars a</tspan><tspan class="cls-28" x="172.97" y="320">f</tspan><tspan x="180.49" y="320">ter g</tspan><tspan class="cls-28" x="233.12" y="320">r</tspan><tspan class="cls-20" x="242" y="320">adu</tspan><tspan class="cls-14" x="283.52" y="320">a</tspan><tspan x="296.1" y="320">ting their </tspan><tspan x="0" y="352">friendship turned into a c</tspan><tspan class="cls-36" x="281.35" y="352">r</tspan><tspan class="cls-24" x="290.11" y="352">e</tspan><tspan class="cls-54" x="303.57" y="352">a</tspan><tspan x="316.15" y="352">tive </tspan><tspan x="0" y="384">pa</tspan><tspan class="cls-28" x="27.7" y="384">r</tspan><tspan class="cls-20" x="36.58" y="384">tnership as the co-founders o</tspan><tspan class="cls-30" x="361.87" y="384">f</tspan><tspan x="370.14" y="384" xml:space="preserve"> Dooz</tspan><tspan class="cls-33" x="434.11" y="384">.</tspan></tspan></text><text class="cls-80" transform="translate(9469 2098.81)">T<tspan class="cls-48" x="41.67" y="0">H</tspan><tspan class="cls-5" x="95.61" y="0">E </tspan><tspan class="cls-81" x="161.06" y="0">T</tspan><tspan class="cls-82" x="202.73" y="0">E</tspan><tspan class="cls-47" x="247.93" y="0">A</tspan><tspan class="cls-5" x="299.86" y="0">M </tspan></text></g></svg>