<svg xmlns="http://www.w3.org/2000/svg" viewBox="0 0 10846.5 2942.34"><defs><style>.cls-1{fill:#000c2a;}.cls-2,.cls-3{fill:#fff;}.cls-3{font-size:28px;letter-spacing:0.07em;}.cls-3,.cls-80,.cls-96{font-family:AvenirNext-Regular, Avenir Next;}.cls-4{letter-spacing:0.06em;}.cls-5{letter-spacing:0.06em;}.cls-6{letter-spacing:0.06em;}.cls-7{letter-spacing:0.07em;}.cls-8{letter-spacing:0.11em;}.cls-9{letter-spacing:0.07em;}.cls-10{letter-spacing:0.06em;}.cls-11{letter-spacing:0.06em;}.cls-12{letter-spacing:0.07em;}.cls-13{letter-spacing:0.08em;}.cls-14{fill:#09142d;}.cls-15{font-size:85px;stroke-width:1.5px;}.cls-112,.cls-113,.cls-124,.cls-134,.cls-15{fill:none;stroke:#09142d;}.cls-113,.cls-124,.cls-134,.cls-15{font-family:AvenirNext-Bold, Avenir Next;font-weight:700;}.cls-15,.cls-39{letter-spacing:0.07em;}.cls-16{letter-spacing:0.06em;}.cls-17{letter-spacing:0.08em;}.cls-18{letter-spacing:0.01em;}.cls-19{letter-spacing:0em;}.cls-20{letter-spacing:0.06em;}.cls-21{letter-spacing:0.07em;}.cls-22{letter-spacing:0.06em;}.cls-23{letter-spacing:0.05em;}.cls-24{letter-spacing:0.05em;}.cls-25{letter-spacing:0.06em;}.cls-26{letter-spacing:0.07em;}.cls-27{letter-spacing:0.08em;}.cls-28{letter-spacing:0em;}.cls-29{letter-spacing:0.07em;}.cls-30{letter-spacing:0.04em;}.cls-31{letter-spacing:0.06em;}.cls-32{letter-spacing:0.07em;}.cls-33{letter-spacing:0.07em;}.cls-34{letter-spacing:0.06em;}.cls-35{letter-spacing:0.06em;}.cls-36{letter-spacing:0.06em;}.cls-37{letter-spacing:0.05em;}.cls-38{letter-spacing:0.06em;}.cls-40{letter-spacing:0.04em;}.cls-41{letter-spacing:0.06em;}.cls-42{letter-spacing:0.04em;}.cls-43{letter-spacing:0.06em;}.cls-44{letter-spacing:0.06em;}.cls-45{letter-spacing:0.07em;}.cls-46{letter-spacing:0.03em;}.cls-47{letter-spacing:0.06em;}.cls-48{letter-spacing:0.07em;}.cls-49{letter-spacing:0.06em;}.cls-50{letter-spacing:0.08em;}.cls-51{letter-spacing:0.06em;}.cls-52{letter-spacing:0.07em;}.cls-53{letter-spacing:0.07em;}.cls-54{letter-spacing:0.1em;}.cls-55{letter-spacing:0.06em;}.cls-56{letter-spacing:0.07em;}.cls-57{letter-spacing:-0.01em;}.cls-58{letter-spacing:0.07em;}.cls-59{font-size:35px;font-family:AvenirNextLTPro-Light, AvenirNextLTPro Light;}.cls-59,.cls-77{letter-spacing:0.07em;}.cls-60{letter-spacing:0.07em;}.cls-61{letter-spacing:0.07em;}.cls-62{letter-spacing:0.07em;}.cls-63{letter-spacing:0.07em;}.cls-64{letter-spacing:0.06em;}.cls-65{letter-spacing:0.07em;}.cls-66{letter-spacing:0.1em;}.cls-67{letter-spacing:0.06em;}.cls-68{letter-spacing:0.07em;}.cls-69{letter-spacing:0.07em;}.cls-70{letter-spacing:0.07em;}.cls-71{letter-spacing:0.04em;}.cls-72{letter-spacing:0.08em;}.cls-73{letter-spacing:0.07em;}.cls-74{letter-spacing:0.07em;}.cls-75{letter-spacing:0.07em;}.cls-76{letter-spacing:0.03em;}.cls-78{letter-spacing:0.07em;}.cls-79{letter-spacing:0.1em;}.cls-80,.cls-96{font-size:21px;}.cls-80,.cls-93{letter-spacing:0.07em;}.cls-81,.cls-96{letter-spacing:0.06em;}.cls-82{letter-spacing:0.06em;}.cls-83{letter-spacing:0.1em;}.cls-84{letter-spacing:0.08em;}.cls-85{letter-spacing:0.06em;}.cls-86{letter-spacing:0.04em;}.cls-87{letter-spacing:0.04em;}.cls-88{letter-spacing:0.06em;}.cls-89{letter-spacing:0.06em;}.cls-90{letter-spacing:0.05em;}.cls-91{letter-spacing:0.07em;}.cls-92{letter-spacing:0.05em;}.cls-94{letter-spacing:0.04em;}.cls-95{letter-spacing:0.05em;}.cls-97{letter-spacing:-0.02em;}.cls-98{letter-spacing:0.05em;}.cls-99{letter-spacing:0.04em;}.cls-100{letter-spacing:0.03em;}.cls-101{letter-spacing:0.07em;}.cls-102{letter-spacing:0.1em;}.cls-103{letter-spacing:0.07em;}.cls-104{letter-spacing:0.05em;}.cls-105{letter-spacing:0.05em;}.cls-106{letter-spacing:0.06em;}.cls-107{letter-spacing:0.06em;}.cls-108{letter-spacing:0.04em;}.cls-109{letter-spacing:0.07em;}.cls-110{letter-spacing:0.06em;}.cls-111{letter-spacing:0.07em;}.cls-112{stroke-miterlimit:10;}.cls-113,.cls-124,.cls-134{font-size:65px;}.cls-113,.cls-130{letter-spacing:0.07em;}.cls-114{letter-spacing:0.07em;}.cls-115{letter-spacing:0.06em;}.cls-116{letter-spacing:0.06em;}.cls-117{letter-spacing:0.07em;}.cls-118{letter-spacing:0.07em;}.cls-119{letter-spacing:0.07em;}.cls-120{letter-spacing:0.06em;}.cls-121{letter-spacing:0.06em;}.cls-122{letter-spacing:0.09em;}.cls-123{letter-spacing:0.07em;}.cls-124{letter-spacing:0.05em;}.cls-125{letter-spacing:0.06em;}.cls-126{letter-spacing:0.07em;}.cls-127{letter-spacing:0.05em;}.cls-128{letter-spacing:0.06em;}.cls-129{letter-spacing:0.06em;}.cls-131{letter-spacing:0em;}.cls-132,.cls-134{letter-spacing:0.06em;}.cls-133{letter-spacing:0.07em;}.cls-135{letter-spacing:0.06em;}.cls-136{letter-spacing:0.09em;}</style></defs><title>about-again</title><g id="UI"><rect class="cls-1" y="1142.34" width="300" height="1080"/><path class="cls-2" d="M88.78,22.91a1.25,1.25,0,1,0-2.5,0V84.14c-1.13,15.42-12.81,26.6-27.82,26.6a27.67,27.67,0,0,1,0-55.35A29.86,29.86,0,0,1,75.4,60.91a1.25,1.25,0,0,0,1.42-2.06,32.35,32.35,0,0,0-18.36-6,30.18,30.18,0,0,0,0,60.35A29.68,29.68,0,0,0,86.27,94.87v16.89a1.25,1.25,0,1,0,2.5,0Z" transform="translate(9088 -21.66)"/><path class="cls-2" d="M269.35,113.11H228c-3.1,0-5.34-1.23-6.16-3.37a5.81,5.81,0,0,1,1.82-6.26c1.06-1,12.49-12.44,22.58-22.57C256,71,264.54,62.5,265.32,61.8c2-1.76,2.84-3.46,2.38-4.68s-2-1.83-3.83-1.83h-41a1.25,1.25,0,0,1,0-2.5h41c3,0,5.36,1.32,6.17,3.44.5,1.32.77,4-3,7.44-.72.64-10,10-19,19-10.6,10.65-21.57,21.67-22.68,22.67a3.36,3.36,0,0,0-1.16,3.5c.43,1.13,1.79,1.76,3.82,1.76h41.38a1.25,1.25,0,0,1,0,2.5Z" transform="translate(9088 -21.66)"/><path class="cls-2" d="M191.91,113.34A30.19,30.19,0,1,1,210,58.95a1.11,1.11,0,1,1-1.32,1.78,28,28,0,1,0-16.76,50.4,27.92,27.92,0,0,0,28-27.76A28.21,28.21,0,0,0,215,67.29,1.11,1.11,0,0,1,216.82,66c3.28,4.44,5.31,11.1,5.31,17.39A30.14,30.14,0,0,1,191.91,113.34Z" transform="translate(9088 -21.66)"/><path class="cls-2" d="M150.33,66.37c-.92-1.53-1.87-.65-3,.58s-33.84,33.89-38.62,38.67A27.9,27.9,0,0,1,125.1,55.24,28.76,28.76,0,0,1,142,60.84,1.14,1.14,0,1,0,143.36,59a31,31,0,0,0-18.26-6,30.18,30.18,0,1,0,30,34.94C157,76.84,151.22,67.85,150.33,66.37Z" transform="translate(9088 -21.66)"/><text class="cls-3" transform="translate(9118 249.42)">c<tspan class="cls-4" x="15.88" y="0">o</tspan><tspan class="cls-5" x="34.76" y="0">l</tspan><tspan class="cls-6" x="43.42" y="0">l</tspan><tspan class="cls-7" x="52.26" y="0">e</tspan><tspan class="cls-8" x="70.23" y="0">c</tspan><tspan class="cls-9" x="87.43" y="0">t</tspan><tspan class="cls-10" x="98.32" y="0">i</tspan><tspan class="cls-11" x="107.03" y="0">o</tspan><tspan class="cls-12" x="125.87" y="0">n</tspan><tspan class="cls-13" x="143.97" y="0">s</tspan></text><path class="cls-14" d="M1110,443.45l23.22-23.23.32.66.29.67.27.67a20,20,0,0,1-8.38,24.07l-.63.37-.64.34a20,20,0,0,1-24.42-5l-.46-.56-.44-.58-.41-.6-.39-.62a20,20,0,0,1,3.51-25.24l.55-.48.55-.47a20,20,0,0,1,24.92.1l.56.47.54.48.52.51-3.37,3.36,0,0-.43-.41-.48-.43a15.24,15.24,0,0,0-22.1,2.6l-.37.52-.35.53A15.24,15.24,0,0,0,1108.8,443l.58.27.6.23Z" transform="translate(9088 -21.66)"/><path class="cls-14" d="M772,2502.45l23.22-23.23.32.66.29.67.27.67a20,20,0,0,1-8.38,24.07l-.63.37-.64.34a20,20,0,0,1-24.42-5l-.46-.56-.44-.58-.41-.6-.39-.62a20,20,0,0,1,3.51-25.24l.55-.48.55-.47a20,20,0,0,1,24.92.1l.56.47.54.48.52.51-3.37,3.36,0,0-.43-.41-.48-.43a15.24,15.24,0,0,0-22.1,2.6l-.37.52-.35.53A15.24,15.24,0,0,0,770.8,2502l.58.27.6.23Z" transform="translate(9088 -21.66)"/></g><g id="NewLayers"><text class="cls-15" transform="translate(9454 91.34)">E<tspan class="cls-16" x="57.52" y="0">L</tspan><tspan class="cls-17" x="107.09" y="0">E</tspan><tspan class="cls-18" x="165.23" y="0">V</tspan><tspan class="cls-19" x="224.13" y="0">A</tspan><tspan class="cls-20" x="285.72" y="0">T</tspan><tspan x="340.06" y="0">E</tspan><tspan class="cls-21" x="397.57" y="0">D </tspan><tspan class="cls-22" x="497.36" y="0">C</tspan><tspan class="cls-23" x="561.71" y="0">L</tspan><tspan class="cls-24" x="610.48" y="0">O</tspan><tspan class="cls-25" x="687.1" y="0">S</tspan><tspan class="cls-26" x="742.49" y="0">E</tspan><tspan class="cls-21" x="799.7" y="0">T </tspan><tspan class="cls-27" x="883.08" y="0">S</tspan><tspan class="cls-28" x="940.05" y="0">T</tspan><tspan class="cls-29" x="989.1" y="0">A</tspan><tspan class="cls-30" x="1056.86" y="0">P</tspan><tspan class="cls-31" x="1115" y="0">L</tspan><tspan class="cls-32" x="1164.57" y="0">E</tspan><tspan class="cls-33" x="1222.19" y="0">S </tspan><tspan class="cls-34"><tspan x="0" y="90">I</tspan><tspan class="cls-35" x="32.39" y="90">N</tspan><tspan class="cls-36" x="104.72" y="90">S</tspan><tspan class="cls-37" x="160.11" y="90">P</tspan><tspan x="218.46" y="90">I</tspan><tspan class="cls-38" x="250.85" y="90">R</tspan><tspan class="cls-39" x="312.33" y="90">E</tspan><tspan class="cls-21" x="369.85" y="90">D </tspan><tspan class="cls-40" x="469.64" y="90">B</tspan><tspan class="cls-21" x="529.25" y="90">Y </tspan><tspan class="cls-20" x="620.11" y="90">T</tspan><tspan class="cls-41" x="674.45" y="90">H</tspan><tspan class="cls-21" x="744.83" y="90">E </tspan><tspan class="cls-42" x="830.42" y="90">Z</tspan><tspan class="cls-43" x="887.88" y="90">O</tspan><tspan class="cls-44" x="965.32" y="90">D</tspan><tspan class="cls-45" x="1036.31" y="90">I</tspan><tspan class="cls-46" x="1069.13" y="90">A</tspan><tspan class="cls-33" x="1133.57" y="90">C </tspan></tspan><tspan class="cls-21"><tspan x="0" y="180">— </tspan><tspan class="cls-47" x="85" y="180">T</tspan><tspan class="cls-41" x="139.34" y="180">H</tspan><tspan class="cls-48" x="209.72" y="180">E </tspan><tspan class="cls-49" x="295.31" y="180">C</tspan><tspan class="cls-39" x="359.66" y="180">E</tspan><tspan class="cls-16" x="417.18" y="180">L</tspan><tspan class="cls-32" x="466.75" y="180">E</tspan><tspan class="cls-50" x="524.37" y="180">S</tspan><tspan class="cls-51" x="581.33" y="180">T</tspan><tspan class="cls-52" x="635.67" y="180">I</tspan><tspan class="cls-53" x="668.48" y="180">A</tspan><tspan x="736.25" y="180">L </tspan><tspan class="cls-54" x="814.95" y="180">T</tspan><tspan class="cls-55" x="872.7" y="180">W</tspan><tspan class="cls-56" x="965.01" y="180">E</tspan><tspan class="cls-57" x="1022.53" y="180">L</tspan><tspan class="cls-58" x="1066.79" y="180">V</tspan><tspan x="1130.6" y="180">E</tspan></tspan></text><text class="cls-59" transform="translate(10180 516.19)">A<tspan class="cls-21" x="23.84" y="0">st</tspan><tspan class="cls-60" x="54.53" y="0">r</tspan><tspan class="cls-21" x="68.25" y="0">ology is assu</tspan><tspan class="cls-61" x="285.88" y="0">r</tspan><tspan class="cls-21" x="299.77" y="0">an</tspan><tspan x="341.32" y="0">c</tspan><tspan class="cls-62" x="359.41" y="0">e th</tspan><tspan class="cls-63" x="425.88" y="0">a</tspan><tspan class="cls-21" x="445.23" y="0">t the </tspan><tspan class="cls-21"><tspan x="0" y="42">uni</tspan><tspan class="cls-60" x="54.77" y="42">v</tspan><tspan x="73.88" y="42">erse gets u</tspan><tspan class="cls-64" x="259.8" y="42">s</tspan><tspan x="275.9" y="42">, is</tspan><tspan class="cls-65" x="323.12" y="42">n</tspan><tspan class="cls-66" x="344.92" y="42">&apos;</tspan><tspan x="354.96" y="42">t th</tspan><tspan class="cls-63" x="415.48" y="42">a</tspan><tspan x="434.83" y="42">t w</tspan><tspan class="cls-67" x="487.47" y="42">h</tspan><tspan x="509.07" y="42">y </tspan><tspan class="cls-68" x="538.22" y="42">w</tspan><tspan x="566.26" y="42">e </tspan></tspan><tspan class="cls-60"><tspan x="0" y="84">r</tspan><tspan class="cls-21" x="13.72" y="84">ead our ho</tspan><tspan class="cls-69" x="197.54" y="84">r</tspan><tspan class="cls-21" x="211.26" y="84">os</tspan><tspan class="cls-70" x="249.58" y="84">c</tspan><tspan class="cls-21" x="267.68" y="84">opes?</tspan></tspan><tspan class="cls-71"><tspan x="0" y="168">W</tspan><tspan class="cls-21" x="31.08" y="168">e a</tspan><tspan class="cls-69" x="80.78" y="168">r</tspan><tspan class="cls-21" x="94.5" y="168">e </tspan><tspan class="cls-72" x="124.7" y="168">D</tspan><tspan class="cls-21" x="150.78" y="168">o</tspan><tspan class="cls-73" x="172.62" y="168">o</tspan><tspan class="cls-21" x="194.21" y="168">z, a b</tspan><tspan class="cls-61" x="283.81" y="168">r</tspan><tspan class="cls-13" x="297.71" y="168">and th</tspan><tspan class="cls-63" x="407.92" y="168">a</tspan><tspan class="cls-21" x="427.27" y="168">t emb</tspan><tspan class="cls-74" x="526.04" y="168">r</tspan><tspan class="cls-21" x="539.94" y="168">a</tspan><tspan class="cls-75" x="559.43" y="168">c</tspan><tspan class="cls-21" x="577.53" y="168">es </tspan></tspan><tspan class="cls-21"><tspan x="0" y="210">the dynamism of the </tspan><tspan class="cls-73" x="361.65" y="210">z</tspan><tspan x="379.01" y="210">odia</tspan><tspan class="cls-60" x="453.52" y="210">c</tspan><tspan x="471.48" y="210">.</tspan><tspan class="cls-76" x="481.35" y="210"> </tspan><tspan class="cls-73" x="489.96" y="210">T</tspan><tspan x="509.73" y="210">he 12 </tspan><tspan x="0" y="252">si</tspan><tspan class="cls-77" x="27.3" y="252">g</tspan><tspan x="49.28" y="252">ns a</tspan><tspan class="cls-60" x="117.35" y="252">r</tspan><tspan x="131.07" y="252">e embodied within all of us </tspan><tspan x="0" y="294">and </tspan><tspan class="cls-60" x="73.95" y="294">w</tspan><tspan x="101.99" y="294">e belie</tspan><tspan class="cls-69" x="216.75" y="294">v</tspan><tspan x="235.86" y="294">e in </tspan><tspan class="cls-73" x="308.98" y="294">o</tspan><tspan x="330.57" y="294">wning th</tspan><tspan class="cls-63" x="482.36" y="294">a</tspan><tspan class="cls-78" x="501.72" y="294">t</tspan><tspan x="515.82" y="294">. </tspan><tspan class="cls-72" x="535.74" y="294">D</tspan><tspan x="561.81" y="294">o</tspan><tspan class="cls-73" x="583.65" y="294">o</tspan><tspan x="605.25" y="294">z </tspan></tspan><tspan x="0" y="336">c</tspan><tspan class="cls-21" x="18.1" y="336">eleb</tspan><tspan class="cls-61" x="91.84" y="336">r</tspan><tspan class="cls-63" x="105.73" y="336">a</tspan><tspan class="cls-70" x="125.09" y="336">t</tspan><tspan class="cls-21" x="139.09" y="336">es the f</tspan><tspan class="cls-69" x="265.09" y="336">r</tspan><tspan class="cls-21" x="278.81" y="336">eedom of affi</tspan><tspan class="cls-72" x="500.56" y="336">r</tspan><tspan class="cls-21" x="514.77" y="336">ming </tspan><tspan class="cls-21"><tspan x="0" y="378">who </tspan><tspan class="cls-60" x="82.32" y="378">w</tspan><tspan x="110.35" y="378">e a</tspan><tspan class="cls-69" x="160.05" y="378">r</tspan><tspan x="173.77" y="378">e e</tspan><tspan class="cls-60" x="224.14" y="378">v</tspan><tspan x="243.25" y="378">e</tspan><tspan class="cls-79" x="263.41" y="378">r</tspan><tspan x="278.35" y="378">y time </tspan><tspan class="cls-69" x="394.55" y="378">w</tspan><tspan x="422.58" y="378">e get </tspan><tspan x="0" y="420">d</tspan><tspan class="cls-60" x="22.36" y="420">r</tspan><tspan x="36.08" y="420">esse</tspan><tspan class="cls-69" x="109.37" y="420">d</tspan><tspan x="131.39" y="420">.</tspan></tspan></text><text class="cls-80" transform="translate(9460 1340.21)">Suppo<tspan class="cls-81" x="71.42" y="0">r</tspan><tspan class="cls-13" x="80.3" y="0">ting local (US) industry is a co</tspan><tspan class="cls-82" x="410" y="0">r</tspan><tspan class="cls-13" x="418.76" y="0">e belie</tspan><tspan class="cls-83" x="494.99" y="0">f</tspan><tspan class="cls-84" x="503.26" y="0" xml:space="preserve"> o</tspan><tspan class="cls-83" x="524.49" y="0">f</tspan><tspan x="532.76" y="0" xml:space="preserve"> our b</tspan><tspan class="cls-85" x="598.68" y="0">r</tspan><tspan x="607.56" y="0">and</tspan><tspan class="cls-86" x="649.08" y="0">.</tspan><tspan class="cls-85" x="655.49" y="0"> </tspan><tspan class="cls-87" x="662.06" y="0">W</tspan><tspan class="cls-84" x="683.29" y="0">e </tspan><tspan x="0" y="32">pa</tspan><tspan class="cls-81" x="27.7" y="32">r</tspan><tspan class="cls-13" x="36.58" y="32">tner with </tspan><tspan class="cls-77" x="141.08" y="32">e</tspan><tspan x="154.54" y="32">xpe</tspan><tspan class="cls-81" x="194.77" y="32">r</tspan><tspan class="cls-13" x="203.66" y="32">t c</tspan><tspan class="cls-85" x="230.79" y="32">r</tspan><tspan x="239.67" y="32">a</tspan><tspan class="cls-81" x="252.46" y="32">f</tspan><tspan x="259.98" y="32">tsmen and manufactu</tspan><tspan class="cls-88" x="496.85" y="32">r</tspan><tspan x="505.61" y="32">ers in </tspan><tspan class="cls-89" x="573.48" y="32">L</tspan><tspan class="cls-84" x="585.39" y="32">os</tspan><tspan class="cls-88" x="610.69" y="32"> </tspan><tspan x="617.14" y="32">Angeles</tspan><tspan class="cls-90" x="706.98" y="32">,</tspan><tspan class="cls-84" x="713.38" y="32"> </tspan><tspan class="cls-82"><tspan x="0" y="64">C</tspan><tspan class="cls-13" x="16.32" y="64">alifornia to </tspan><tspan class="cls-91" x="143.79" y="64">ex</tspan><tspan class="cls-13" x="168.86" y="64">ecute our visions</tspan><tspan class="cls-90" x="356.53" y="64">.</tspan><tspan class="cls-92" x="362.94" y="64"> </tspan><tspan x="369.26" y="64">T</tspan><tspan class="cls-13" x="382.43" y="64">h</tspan><tspan x="396.25" y="64">r</tspan><tspan class="cls-93" x="405" y="64">ough thoughtful design </tspan></tspan><tspan x="0" y="96">decisions</tspan><tspan class="cls-94" x="104.24" y="96">,</tspan><tspan x="110.65" y="96" xml:space="preserve"> perfect fit</tspan><tspan class="cls-95" x="224.82" y="96">,</tspan><tspan x="231.23" y="96" xml:space="preserve"> and high-end finishes</tspan><tspan class="cls-90" x="475.94" y="96">,</tspan><tspan x="482.34" y="96" xml:space="preserve"> we aim to ma</tspan><tspan class="cls-88" x="635.75" y="96">k</tspan><tspan class="cls-84" x="647.65" y="96">e our </tspan><tspan x="0" y="128">p</tspan><tspan class="cls-89" x="14.91" y="128">r</tspan><tspan x="23.67" y="128">oducts the best without comp</tspan><tspan class="cls-82" x="352.65" y="128">r</tspan><tspan x="361.41" y="128">omising our values</tspan><tspan class="cls-90" x="569.81" y="128">.</tspan></text><text class="cls-96" transform="translate(9460 2546.21)">R<tspan class="cls-13" x="13.9" y="0">achel Bo</tspan><tspan class="cls-82" x="109.2" y="0">r</tspan><tspan class="cls-93" x="117.96" y="0">gha</tspan><tspan class="cls-89" x="159.41" y="0">r</tspan><tspan class="cls-93" x="168.17" y="0">d and Mia </tspan><tspan x="284.9" y="0">K</tspan><tspan class="cls-93" x="299.42" y="0">azovs</tspan><tspan x="360.19" y="0">k</tspan><tspan class="cls-87" x="372.22" y="0">y</tspan><tspan class="cls-94" x="383.29" y="0">,</tspan><tspan class="cls-93" x="389.69" y="0" xml:space="preserve"> a </tspan><tspan class="cls-97"><tspan x="0" y="32">T</tspan><tspan class="cls-13" x="11.53" y="32">aurus and </tspan><tspan class="cls-98" x="127.07" y="32">P</tspan><tspan class="cls-93" x="140.32" y="32">isces </tspan><tspan class="cls-89" x="201.43" y="32">r</tspan><tspan class="cls-93" x="210.19" y="32">espectivel</tspan><tspan class="cls-99" x="322.58" y="32">y</tspan><tspan class="cls-90" x="333.64" y="32">,</tspan><tspan class="cls-13" x="340.05" y="32" xml:space="preserve"> met while </tspan></tspan><tspan class="cls-93"><tspan x="0" y="64">studying </tspan><tspan class="cls-100" x="101.95" y="64">F</tspan><tspan x="114.32" y="64">ashion Design </tspan><tspan class="cls-101" x="277.89" y="64">a</tspan><tspan x="290.47" y="64">t </tspan><tspan class="cls-100" x="305.53" y="64">P</tspan><tspan class="cls-85" x="318.27" y="64">r</tspan><tspan class="cls-101" x="327.16" y="64">a</tspan><tspan class="cls-81" x="339.73" y="64">t</tspan><tspan class="cls-13" x="347.71" y="64">t Institute </tspan><tspan x="0" y="96">whe</tspan><tspan class="cls-89" x="44.65" y="96">r</tspan><tspan x="53.4" y="96">e they bonded over inte</tspan><tspan class="cls-82" x="319.74" y="96">r</tspan><tspan class="cls-13" x="328.5" y="96">ests and </tspan></tspan><tspan class="cls-91"><tspan x="0" y="128">e</tspan><tspan class="cls-13" x="13.46" y="128">xperiences outside o</tspan><tspan class="cls-102" x="244.31" y="128">f</tspan><tspan class="cls-93" x="252.58" y="128" xml:space="preserve"> fashion</tspan><tspan class="cls-90" x="339.69" y="128">.</tspan><tspan class="cls-93" x="346.1" y="128" xml:space="preserve"> Influenced </tspan></tspan><tspan class="cls-93"><tspan x="0" y="160">by global a</tspan><tspan class="cls-89" x="123.94" y="160">r</tspan><tspan x="132.7" y="160">chitectu</tspan><tspan class="cls-82" x="221.32" y="160">r</tspan><tspan class="cls-13" x="230.07" y="160">e and modern a</tspan><tspan class="cls-81" x="404.41" y="160">r</tspan><tspan class="cls-103" x="413.3" y="160">t</tspan><tspan class="cls-104" x="421.53" y="160">,</tspan><tspan x="427.93" y="160"> </tspan><tspan x="0" y="192">they sha</tspan><tspan class="cls-89" x="91.79" y="192">r</tspan><tspan x="100.55" y="192">ed similar design aesthetics: </tspan><tspan x="0" y="224">bold colors</tspan><tspan class="cls-90" x="125.79" y="224">,</tspan><tspan x="132.19" y="224" xml:space="preserve"> cl</tspan><tspan class="cls-77" x="157.96" y="224">e</tspan><tspan class="cls-13" x="171.42" y="224">an lines</tspan><tspan class="cls-94" x="256.76" y="224">,</tspan><tspan x="263.17" y="224" xml:space="preserve"> and e</tspan><tspan class="cls-82" x="331.92" y="224">f</tspan><tspan x="339.32" y="224">fo</tspan><tspan class="cls-81" x="361.49" y="224">r</tspan><tspan x="370.37" y="224">tless </tspan><tspan x="0" y="256">silhoue</tspan><tspan class="cls-81" x="80.18" y="256">t</tspan><tspan class="cls-13" x="88.16" y="256">tes</tspan><tspan class="cls-90" x="120.87" y="256">.</tspan><tspan class="cls-105" x="127.28" y="256"> </tspan><tspan class="cls-106" x="133.6" y="256">T</tspan><tspan x="146.77" y="256">hey o</tspan><tspan class="cls-107" x="207.23" y="256">f</tspan><tspan x="214.74" y="256">ten half-jo</tspan><tspan class="cls-89" x="327.95" y="256">k</tspan><tspan class="cls-13" x="339.86" y="256">ed about </tspan><tspan x="0" y="288">sta</tspan><tspan class="cls-85" x="31.92" y="288">r</tspan><tspan x="40.8" y="288">ting a line together some da</tspan><tspan class="cls-87" x="355.04" y="288">y</tspan><tspan class="cls-94" x="366.11" y="288">,</tspan><tspan class="cls-84" x="372.51" y="288" xml:space="preserve"> and </tspan><tspan x="0" y="320">n</tspan><tspan class="cls-77" x="13.78" y="320">e</tspan><tspan x="27.24" y="320">arly 5 y</tspan><tspan class="cls-77" x="107.08" y="320">e</tspan><tspan class="cls-13" x="120.54" y="320">ars a</tspan><tspan class="cls-81" x="172.97" y="320">f</tspan><tspan x="180.49" y="320">ter g</tspan><tspan class="cls-81" x="233.12" y="320">r</tspan><tspan class="cls-13" x="242" y="320">adu</tspan><tspan class="cls-68" x="283.52" y="320">a</tspan><tspan x="296.1" y="320">ting their </tspan><tspan x="0" y="352">friendship turned into a c</tspan><tspan class="cls-89" x="281.35" y="352">r</tspan><tspan class="cls-77" x="290.11" y="352">e</tspan><tspan class="cls-101" x="303.57" y="352">a</tspan><tspan x="316.15" y="352">tive </tspan><tspan x="0" y="384">pa</tspan><tspan class="cls-81" x="27.7" y="384">r</tspan><tspan class="cls-13" x="36.58" y="384">tnership as the co-founders o</tspan><tspan class="cls-83" x="361.87" y="384">f</tspan><tspan x="370.14" y="384" xml:space="preserve"> Dooz</tspan><tspan class="cls-86" x="434.11" y="384">.</tspan></tspan></text><text class="cls-80" transform="translate(10306 1912.21)">Selecting m<tspan class="cls-68" x="130.16" y="0">a</tspan><tspan x="142.74" y="0">terials is the first step in our </tspan><tspan x="0" y="32">c</tspan><tspan class="cls-89" x="12.07" y="32">r</tspan><tspan class="cls-77" x="20.83" y="32">e</tspan><tspan class="cls-101" x="34.29" y="32">a</tspan><tspan x="46.87" y="32">tive p</tspan><tspan class="cls-82" x="109.07" y="32">r</tspan><tspan class="cls-13" x="117.83" y="32">ocess</tspan><tspan class="cls-95" x="179.69" y="32">.</tspan><tspan class="cls-107" x="186.1" y="32"> </tspan><tspan class="cls-108" x="192.67" y="32">W</tspan><tspan x="213.9" y="32">e believe m</tspan><tspan class="cls-101" x="342.49" y="32">a</tspan><tspan x="355.06" y="32">terials a</tspan><tspan class="cls-88" x="443.01" y="32">r</tspan><tspan x="451.77" y="32">e as </tspan><tspan x="0" y="64">impo</tspan><tspan class="cls-81" x="56.26" y="64">r</tspan><tspan x="65.14" y="64">tant as silhoue</tspan><tspan class="cls-107" x="225.68" y="64">t</tspan><tspan class="cls-13" x="233.66" y="64">tes; they inform design </tspan><tspan x="0" y="96">decisions and b</tspan><tspan class="cls-82" x="174.36" y="96">r</tspan><tspan class="cls-109" x="183.12" y="96">e</tspan><tspan class="cls-110" x="196.58" y="96">a</tspan><tspan class="cls-13" x="209.16" y="96">the life into </tspan><tspan class="cls-77" x="343.56" y="96">e</tspan><tspan x="357.02" y="96">ach style</tspan><tspan class="cls-104" x="453.93" y="96">.</tspan><tspan class="cls-107" x="460.34" y="96"> </tspan><tspan class="cls-87" x="466.91" y="96">W</tspan><tspan x="488.14" y="96">e </tspan><tspan x="0" y="128">work with specialized mills and tanneries</tspan><tspan class="cls-90" x="453.18" y="128">,</tspan><tspan class="cls-84" x="459.58" y="128"> </tspan><tspan x="0" y="160">sou</tspan><tspan class="cls-89" x="39.08" y="160">r</tspan><tspan x="47.84" y="160">cing </tspan><tspan class="cls-82" x="102.18" y="160">r</tspan><tspan x="110.94" y="160">efined </tspan><tspan class="cls-85" x="186.67" y="160">r</tspan><tspan x="195.55" y="160">aw m</tspan><tspan class="cls-68" x="252.52" y="160">a</tspan><tspan x="265.1" y="160">terials to ensu</tspan><tspan class="cls-89" x="421.76" y="160">r</tspan><tspan x="430.52" y="160">e th</tspan><tspan class="cls-111" x="472.98" y="160">a</tspan><tspan x="485.56" y="160">t </tspan><tspan class="cls-91"><tspan x="0" y="192">e</tspan><tspan class="cls-13" x="13.46" y="192">ach Dooz piece only gets be</tspan><tspan class="cls-85" x="327.37" y="192">t</tspan><tspan class="cls-93" x="335.35" y="192">ter with time</tspan><tspan class="cls-90" x="474.83" y="192">.</tspan></tspan></text><line class="cls-112" x1="10160" y1="407.34" x2="10082" y2="407.34"/><path class="cls-112" d="M1162,429h546a50,50,0,0,1,50,50l-.46,634.54a50,50,0,0,1-50,50H675a50,50,0,0,0-50,50v44" transform="translate(9088 -21.66)"/><text class="cls-113" transform="translate(9454 1298.34)">M<tspan class="cls-114" x="66.65" y="0">A</tspan><tspan class="cls-115" x="118.58" y="0">D</tspan><tspan class="cls-21" x="172.88" y="0">E </tspan><tspan class="cls-116" x="238.33" y="0">I</tspan><tspan class="cls-21" x="263.22" y="0">N </tspan><tspan class="cls-117" x="340.57" y="0">A</tspan><tspan class="cls-118" x="392.5" y="0">M</tspan><tspan class="cls-119" x="458.85" y="0">E</tspan><tspan class="cls-120" x="502.95" y="0">R</tspan><tspan class="cls-121" x="550.05" y="0">I</tspan><tspan class="cls-122" x="574.81" y="0">C</tspan><tspan class="cls-123" x="626.05" y="0">A</tspan></text><text class="cls-124" transform="translate(10303 1805.34)">S<tspan class="cls-125" x="41.89" y="0">O</tspan><tspan class="cls-126" x="101.18" y="0">U</tspan><tspan class="cls-127" x="153.54" y="0">R</tspan><tspan class="cls-128" x="199.89" y="0">C</tspan><tspan class="cls-116" x="249.21" y="0">I</tspan><tspan class="cls-129" x="274.1" y="0">N</tspan><tspan class="cls-21" x="329.57" y="0">G &amp;</tspan><tspan class="cls-130"><tspan x="0" y="65">M</tspan><tspan class="cls-131" x="66.65" y="65">A</tspan><tspan class="cls-132" x="113.91" y="65">T</tspan><tspan class="cls-119" x="155.58" y="65">E</tspan><tspan class="cls-120" x="199.68" y="65">R</tspan><tspan class="cls-133" x="246.78" y="65">I</tspan><tspan class="cls-117" x="271.99" y="65">A</tspan><tspan class="cls-21" x="323.92" y="65">L</tspan></tspan></text><circle class="cls-14" cx="10558" cy="1142.34" r="10"/><path class="cls-112" d="M624,1510v774a50,50,0,0,0,50,50h746a50,50,0,0,0,50-50V2144" transform="translate(9088 -21.66)"/><line class="cls-112" x1="10558" y1="1141.34" x2="10558" y2="1741.34"/><text class="cls-134" transform="translate(9460 2492.34)">T<tspan class="cls-118" x="41.67" y="0">H</tspan><tspan class="cls-21" x="95.61" y="0">E </tspan><tspan class="cls-135" x="161.06" y="0">T</tspan><tspan class="cls-136" x="202.73" y="0">E</tspan><tspan class="cls-117" x="247.93" y="0">A</tspan><tspan class="cls-21" x="299.86" y="0">M </tspan></text><circle class="cls-14" cx="9865" cy="2312.34" r="10"/><line class="cls-112" x1="9864.5" y1="2311.84" x2="9864.5" y2="2437.84"/></g></svg>