<svg id="Layer_1" data-name="Layer 1" xmlns="http://www.w3.org/2000/svg" viewBox="0 0 500 500.03"><defs><style>.cls-1{fill:#fff;}.cls-2{fill:#0b142b;}</style></defs><title>navy-dooz-01</title><rect class="cls-1" width="500" height="500"/><rect class="cls-1" y="0.03" width="500" height="500"/><g id="Layer_1-2" data-name="Layer 1"><path class="cls-2" d="M196.56,392.55,428.74,160.27l3.19,6.59,2.87,6.7,2.66,6.7c33.35,89.93-1.6,191.09-83.79,240.73l-6.27,3.72L341,428.1A200,200,0,0,1,96.78,378.56l-4.57-5.64-4.36-5.85-4.15-6L79.77,355a200.05,200.05,0,0,1,35.09-252.42l5.53-4.78,5.53-4.68c73.55-57.68,176.22-57.52,249.24,1l5.64,4.68,5.42,4.78,5.21,5.1-33.7,33.6-.26-.25-4.31-4.1-4.78-4.25c-67.47-56.73-168.64-44.93-221,26l-3.72,5.21-3.51,5.32C72.93,247.67,102.6,348.5,184.61,387.6l5.85,2.66,6,2.34Z" transform="translate(0 0)"/></g></svg>